# xmcd
#
# Track frame offsets:
#	150
#	32161
#	52571
#	70618
#	85543
#	140236
#	196758
#	218518
#	252136
#	280627
#
# Disc length: 4148 seconds
# Revision: 2
# Processed by: cddbd v1.5.2PL0 Copyright (c) Steve Scherf et al.
# Submitted via: dBpowerAMP V12.0
#
DISCID=7b10320a
DTITLE=Blues Wire - Live 
DYEAR=2002
DGENRE=Blues
TTITLE0=Intro - Let the Good Times Roll
TTITLE1=Backdoor Man
TTITLE2=Homely Girl
TTITLE3=Call me the Breeze
TTITLE4=Reconsider Baby
TTITLE5=Whipping Post
TTITLE6=New Rockin' Boogie
TTITLE7=Who do you Love
TTITLE8=Peter Gunn
TTITLE9=Boogie Chillun
EXTD=
EXTT0=
EXTT1=
EXTT2=
EXTT3=
EXTT4=
EXTT5=
EXTT6=
EXTT7=
EXTT8=
EXTT9=
PLAYORDER=
